<?xml version="1.0" encoding="utf-8"?>
<!-- Generator: Adobe Illustrator 28.0.0, SVG Export Plug-In . SVG Version: 6.00 Build 0)  -->
<svg version="1.1" id="Capa_1" xmlns="http://www.w3.org/2000/svg" xmlns:xlink="http://www.w3.org/1999/xlink" x="0px" y="0px"
	 viewBox="0 0 500 108" style="enable-background:new 0 0 500 108;" xml:space="preserve">
<style type="text/css">
	.st0{fill:#F0BA10;}
</style>
<path d="M30.3,57.2c-4.2,0-8.1-0.7-11.8-2.1c-3.6-1.4-6.7-3.3-9.4-5.8c-2.6-2.5-4.7-5.5-6.2-8.8c-1.4-3.4-2.2-7.1-2.2-11.1
	S1.5,21.7,3,18.3c1.5-3.4,3.6-6.3,6.2-8.9C11.9,6.9,15,5,18.6,3.6s7.5-2.1,11.7-2.1c4.3,0,8.2,0.7,11.7,2.1c3.6,1.4,6.7,3.3,9.3,5.8
	c2.7,2.5,4.8,5.4,6.2,8.8s2.2,7.1,2.2,11.2c0,4-0.7,7.7-2.2,11.2c-1.5,3.4-3.6,6.3-6.2,8.9c-2.6,2.5-5.7,4.4-9.3,5.8
	C38.5,56.5,34.5,57.2,30.3,57.2z M47.9,68.7c-2.1,0-4.1-0.2-6-0.7c-1.8-0.5-3.7-1.2-5.5-2.2c-1.8-1-3.7-2.4-5.7-4.2
	c-2-1.8-4.1-3.9-6.4-6.5l13.1-3.3c1.4,1.9,2.7,3.4,3.8,4.5s2.3,1.9,3.4,2.4c1.1,0.5,2.3,0.7,3.5,0.7c3.3,0,6.2-1.3,8.8-4l5.5,6.6
	C58.8,66.5,54,68.7,47.9,68.7z M30.3,46.6c2.4,0,4.6-0.4,6.6-1.2c2-0.8,3.8-2,5.4-3.5s2.7-3.4,3.5-5.5c0.9-2.2,1.3-4.5,1.3-7
	c0-2.6-0.4-4.9-1.3-7c-0.8-2.1-2-3.9-3.5-5.5s-3.3-2.7-5.4-3.5c-2-0.8-4.2-1.2-6.6-1.2s-4.6,0.4-6.7,1.2s-3.9,2-5.4,3.5
	c-1.5,1.5-2.7,3.4-3.5,5.5c-0.8,2.1-1.2,4.4-1.2,7c0,2.5,0.4,4.8,1.2,7c0.9,2.1,2,3.9,3.5,5.5c1.5,1.5,3.3,2.7,5.4,3.5
	C25.6,46.2,27.9,46.6,30.3,46.6z M104.7,57.2c-7.7,0-13.6-2.1-17.9-6.4c-4.3-4.3-6.5-10.3-6.5-18.2V2.4h12.5v29.7
	c0,5.1,1.1,8.8,3.2,11.1c2.1,2.3,5.1,3.4,8.8,3.4c3.8,0,6.8-1.1,8.8-3.4s3.2-6,3.2-11.1V2.4h12.3v30.2c0,7.9-2.2,14-6.5,18.2
	C118.3,55.1,112.3,57.2,104.7,57.2z M152.9,56.3V2.4h12.5v53.9L152.9,56.3L152.9,56.3z M215.5,57.2c-4.2,0-8-0.7-11.6-2
	c-3.5-1.4-6.6-3.3-9.2-5.8s-4.7-5.5-6.2-8.9c-1.4-3.4-2.2-7.1-2.2-11.2s0.7-7.8,2.2-11.2c1.5-3.4,3.5-6.3,6.2-8.9
	c2.7-2.5,5.8-4.4,9.3-5.8c3.5-1.4,7.4-2.1,11.6-2.1c4.7,0,8.9,0.8,12.6,2.5c3.8,1.6,7,4,9.6,7.1l-8,7.4c-1.9-2.1-3.9-3.7-6.2-4.7
	c-2.3-1.1-4.7-1.6-7.4-1.6c-2.5,0-4.8,0.4-6.9,1.2c-2.1,0.8-3.9,2-5.5,3.5c-1.5,1.5-2.8,3.4-3.6,5.5c-0.8,2.1-1.2,4.4-1.2,7
	s0.4,4.9,1.2,7c0.9,2.1,2.1,3.9,3.6,5.5s3.4,2.7,5.5,3.5c2.1,0.8,4.4,1.2,6.9,1.2c2.7,0,5.1-0.5,7.4-1.5c2.3-1.1,4.3-2.7,6.2-4.8
	l8,7.4c-2.6,3.1-5.8,5.5-9.6,7.2C224.5,56.4,220.2,57.2,215.5,57.2z M268.9,44l-0.7-14.4L294,2.4h13.9l-23.2,25l-6.9,7.4L268.9,44z
	 M257.8,56.3V2.4h12.4v53.9L257.8,56.3L257.8,56.3z M294.6,56.3l-19.2-23.5l8.2-8.9l25.6,32.3L294.6,56.3L294.6,56.3z M326.3,56.3
	V2.4h26.3c6.8,0,11.9,1.3,15.2,3.9c3.4,2.6,5.2,5.9,5.2,10.2c0,2.8-0.7,5.3-2.1,7.4c-1.4,2-3.3,3.6-5.7,4.8
	c-2.4,1.1-5.2,1.7-8.3,1.7l1.5-3.2c3.4,0,6.4,0.6,9,1.7c2.6,1.1,4.6,2.7,6.1,4.9c1.5,2.2,2.2,4.8,2.2,7.9c0,4.6-1.8,8.2-5.5,10.9
	c-3.6,2.6-9,3.8-16.1,3.8L326.3,56.3L326.3,56.3z M338.7,46.9h14.5c3.2,0,5.7-0.5,7.3-1.5c1.7-1.1,2.5-2.8,2.5-5.1
	c0-2.3-0.9-3.9-2.5-5c-1.6-1.1-4.1-1.7-7.3-1.7h-15.5v-9.1h13.3c3,0,5.3-0.5,6.9-1.5c1.6-1.1,2.5-2.7,2.5-4.9c0-2.1-0.8-3.7-2.5-4.7
	c-1.6-1.1-3.9-1.6-6.9-1.6h-12.4L338.7,46.9L338.7,46.9z M408.2,24.1h26v9.7h-26V24.1z M409.1,46.3h29.3v10h-41.7V2.4h40.7v10h-28.3
	V46.3z M471.1,56.3V12.6h-17.2V2.4h47v10.2h-17.2v43.7L471.1,56.3L471.1,56.3z"/>
<path class="st0" d="M163,105.6V79.7h4.9l11,18.3h-2.6l10.8-18.3h4.9l0.1,25.9h-5.6l0-17.3h1l-8.6,14.5h-2.7l-8.8-14.5h1.3v17.3
	C168.6,105.6,163,105.6,163,105.6z M216.4,106c-2,0-3.9-0.3-5.7-1c-1.7-0.7-3.2-1.6-4.5-2.8c-1.3-1.2-2.2-2.6-3-4.2
	c-0.7-1.6-1-3.4-1-5.3s0.3-3.7,1-5.3c0.7-1.6,1.7-3,3-4.2s2.8-2.1,4.5-2.8c1.7-0.7,3.6-1,5.6-1c2,0,3.9,0.3,5.6,1
	c1.7,0.7,3.2,1.6,4.5,2.8c1.3,1.2,2.3,2.6,3,4.2c0.7,1.6,1.1,3.4,1.1,5.3c0,1.9-0.4,3.7-1.1,5.4c-0.7,1.6-1.7,3-3,4.2
	c-1.3,1.2-2.8,2.1-4.5,2.8C220.2,105.7,218.4,106,216.4,106z M216.3,100.9c1.2,0,2.2-0.2,3.2-0.6c1-0.4,1.9-1,2.6-1.7
	c0.7-0.7,1.3-1.6,1.7-2.6c0.4-1,0.6-2.1,0.6-3.4s-0.2-2.3-0.6-3.4c-0.4-1-1-1.9-1.7-2.6c-0.7-0.7-1.6-1.3-2.6-1.7s-2.1-0.6-3.2-0.6
	s-2.2,0.2-3.2,0.6c-1,0.4-1.8,1-2.6,1.7s-1.3,1.6-1.7,2.6c-0.4,1-0.6,2.1-0.6,3.4c0,1.2,0.2,2.3,0.6,3.4c0.4,1,1,1.9,1.7,2.6
	c0.7,0.7,1.6,1.3,2.6,1.7C214.1,100.7,215.2,100.9,216.3,100.9z M247.5,105.6l-11.2-25.9h6.5l9.8,22.9h-3.8l9.9-22.9h6l-11.2,25.9
	C253.4,105.6,247.5,105.6,247.5,105.6z M272.3,105.6V79.7h6v25.9H272.3z M295.5,90.1h12.5v4.7h-12.5V90.1z M295.9,100.8H310v4.8h-20
	V79.7h19.5v4.8h-13.6L295.9,100.8L295.9,100.8z M328.8,106c-2.1,0-4-0.3-6-0.8c-1.9-0.6-3.4-1.3-4.6-2.2l2-4.5
	c1.1,0.8,2.4,1.4,3.9,2c1.5,0.5,3.1,0.7,4.6,0.7c1.2,0,2.1-0.1,2.9-0.3c0.7-0.2,1.3-0.6,1.6-1c0.3-0.4,0.5-0.9,0.5-1.4
	c0-0.7-0.3-1.2-0.8-1.6c-0.5-0.4-1.3-0.8-2.1-1c-0.9-0.3-1.9-0.5-3-0.7c-1.1-0.2-2.1-0.5-3.2-0.9c-1.1-0.3-2-0.8-2.9-1.3
	s-1.6-1.3-2.2-2.1c-0.5-0.9-0.8-2-0.8-3.4c0-1.5,0.4-2.8,1.2-4c0.8-1.2,2-2.2,3.6-2.9c1.6-0.7,3.7-1.1,6.1-1.1
	c1.6,0,3.2,0.2,4.8,0.6c1.6,0.4,3,0.9,4.2,1.7l-1.9,4.6c-1.2-0.7-2.4-1.2-3.6-1.5c-1.2-0.3-2.4-0.5-3.5-0.5s-2.1,0.1-2.9,0.4
	c-0.7,0.3-1.3,0.6-1.6,1.1c-0.3,0.4-0.5,0.9-0.5,1.5c0,0.7,0.3,1.2,0.8,1.6c0.5,0.4,1.3,0.7,2.1,1c0.9,0.2,1.9,0.5,2.9,0.7
	c1.1,0.2,2.2,0.5,3.2,0.8c1.1,0.3,2.1,0.8,3,1.3c0.9,0.5,1.6,1.3,2.1,2.1c0.6,0.9,0.9,2,0.9,3.4c0,1.4-0.4,2.8-1.2,4s-2,2.2-3.7,2.9
	C333.3,105.7,331.2,106,328.8,106z"/>
<g>
	<path class="st0" d="M44,87.1h107.8v12.3H57.9L44,87.1z"/>
</g>
<g>
	<path class="st0" d="M456.7,87.1H348.9v12.3h93.9L456.7,87.1z"/>
</g>
<circle class="st0" cx="216.5" cy="93.3" r="3.1"/>
</svg>
