<?xml version="1.0" encoding="utf-8"?>
<!-- Generator: Adobe Illustrator 28.0.0, SVG Export Plug-In . SVG Version: 6.00 Build 0)  -->
<svg version="1.1" id="Capa_1" xmlns="http://www.w3.org/2000/svg" xmlns:xlink="http://www.w3.org/1999/xlink" x="0px" y="0px"
	 viewBox="0 0 500 108" style="enable-background:new 0 0 500 108;" xml:space="preserve">
<style type="text/css">
	.st0{fill:#FFFFFF;}
	.st1{fill:#F0BA10;}
</style>
<path class="st0" d="M30.29,57.23c-4.21,0-8.14-0.69-11.78-2.08c-3.59-1.39-6.72-3.34-9.39-5.85c-2.62-2.52-4.67-5.47-6.16-8.85
	C1.52,37.06,0.8,33.36,0.8,29.36s0.72-7.7,2.16-11.09c1.49-3.39,3.57-6.34,6.24-8.85c2.67-2.52,5.8-4.47,9.39-5.85
	s7.49-2.08,11.7-2.08c4.26,0,8.16,0.69,11.7,2.08c3.59,1.39,6.7,3.34,9.32,5.85c2.67,2.46,4.75,5.39,6.24,8.78
	c1.49,3.39,2.23,7.11,2.23,11.16c0,4-0.74,7.72-2.23,11.16c-1.49,3.39-3.57,6.34-6.24,8.85c-2.62,2.46-5.72,4.39-9.32,5.77
	C38.45,56.54,34.55,57.23,30.29,57.23z M47.92,68.7c-2.1,0-4.11-0.23-6.01-0.69c-1.85-0.46-3.7-1.21-5.54-2.23
	c-1.8-1.03-3.7-2.41-5.7-4.16c-1.95-1.75-4.08-3.9-6.39-6.47l13.09-3.31c1.39,1.9,2.67,3.41,3.85,4.54
	c1.18,1.13,2.31,1.92,3.39,2.39c1.13,0.46,2.31,0.69,3.54,0.69c3.29,0,6.21-1.33,8.78-4l5.54,6.62
	C58.83,66.49,53.98,68.7,47.92,68.7z M30.29,46.61c2.41,0,4.62-0.41,6.62-1.23c2.05-0.82,3.85-2,5.39-3.54
	c1.54-1.54,2.72-3.36,3.54-5.47c0.87-2.16,1.31-4.49,1.31-7.01c0-2.57-0.44-4.9-1.31-7.01c-0.82-2.1-2-3.93-3.54-5.47
	c-1.54-1.54-3.34-2.72-5.39-3.54c-2-0.82-4.21-1.23-6.62-1.23c-2.41,0-4.65,0.41-6.7,1.23c-2.05,0.82-3.85,2-5.39,3.54
	c-1.49,1.54-2.67,3.36-3.54,5.47c-0.82,2.1-1.23,4.44-1.23,7.01c0,2.52,0.41,4.85,1.23,7.01c0.87,2.1,2.05,3.93,3.54,5.47
	c1.54,1.54,3.34,2.72,5.39,3.54C25.65,46.19,27.88,46.61,30.29,46.61z M104.65,57.23c-7.65,0-13.63-2.13-17.94-6.39
	c-4.31-4.26-6.47-10.34-6.47-18.25V2.41h12.47v29.72c0,5.13,1.05,8.83,3.16,11.09c2.1,2.26,5.06,3.39,8.85,3.39
	c3.8,0,6.75-1.13,8.85-3.39c2.1-2.26,3.16-5.95,3.16-11.09V2.41h12.32v30.18c0,7.9-2.16,13.99-6.47,18.25
	C118.27,55.1,112.3,57.23,104.65,57.23z M152.93,56.31V2.41h12.47v53.89H152.93z M215.53,57.23c-4.16,0-8.03-0.67-11.63-2
	c-3.54-1.39-6.62-3.34-9.24-5.85s-4.67-5.47-6.16-8.85c-1.44-3.39-2.16-7.11-2.16-11.16s0.72-7.78,2.16-11.16
	c1.49-3.39,3.54-6.34,6.16-8.85c2.67-2.52,5.77-4.44,9.32-5.77c3.54-1.39,7.42-2.08,11.63-2.08c4.67,0,8.88,0.82,12.63,2.46
	c3.8,1.59,6.98,3.95,9.55,7.08l-8.01,7.39c-1.85-2.1-3.9-3.67-6.16-4.7c-2.26-1.08-4.72-1.62-7.39-1.62c-2.51,0-4.82,0.41-6.93,1.23
	c-2.1,0.82-3.93,2-5.47,3.54c-1.54,1.54-2.75,3.36-3.62,5.47c-0.82,2.1-1.23,4.44-1.23,7.01s0.41,4.9,1.23,7.01
	c0.87,2.1,2.08,3.93,3.62,5.47c1.54,1.54,3.36,2.72,5.47,3.54c2.1,0.82,4.41,1.23,6.93,1.23c2.67,0,5.13-0.51,7.39-1.54
	c2.26-1.08,4.31-2.69,6.16-4.85l8.01,7.39c-2.57,3.13-5.75,5.52-9.55,7.16C224.49,56.41,220.25,57.23,215.53,57.23z M268.92,43.99
	l-0.69-14.4l25.79-27.18h13.86l-23.25,25.02l-6.93,7.39L268.92,43.99z M257.75,56.31V2.41h12.4v53.89H257.75z M294.63,56.31
	l-19.17-23.48l8.16-8.85l25.56,32.34H294.63z M326.3,56.31V2.41h26.33c6.78,0,11.86,1.28,15.24,3.85c3.44,2.57,5.16,5.95,5.16,10.16
	c0,2.82-0.69,5.29-2.08,7.39c-1.39,2.05-3.29,3.64-5.7,4.77c-2.41,1.13-5.18,1.69-8.32,1.69l1.46-3.16c3.39,0,6.39,0.56,9.01,1.69
	c2.62,1.08,4.64,2.69,6.08,4.85c1.49,2.16,2.23,4.8,2.23,7.93c0,4.62-1.82,8.24-5.47,10.86c-3.64,2.57-9.01,3.85-16.09,3.85H326.3z
	 M338.69,46.91h14.55c3.23,0,5.67-0.51,7.31-1.54c1.69-1.08,2.54-2.77,2.54-5.08c0-2.26-0.85-3.93-2.54-5
	c-1.64-1.13-4.08-1.69-7.31-1.69h-15.48v-9.09h13.32c3.03,0,5.34-0.51,6.93-1.54c1.64-1.08,2.46-2.69,2.46-4.85
	c0-2.1-0.82-3.67-2.46-4.7c-1.59-1.08-3.9-1.62-6.93-1.62h-12.4V46.91z M408.19,24.12h25.95v9.7h-25.95V24.12z M409.11,46.3h29.33
	v10.01h-41.73V2.41h40.73v10.01h-28.33V46.3z M471.08,56.31V12.57h-17.25V2.41h46.97v10.16h-17.25v43.73H471.08z"/>
<path class="st1" d="M162.96,105.58V79.71h4.95l11.01,18.26h-2.62l10.83-18.26h4.92l0.07,25.87h-5.62l-0.04-17.26h1.03l-8.65,14.52
	h-2.7l-8.83-14.52h1.26v17.26H162.96z M216.37,106.02c-2.04,0-3.94-0.33-5.69-1c-1.72-0.67-3.23-1.6-4.51-2.81
	c-1.26-1.21-2.24-2.62-2.96-4.25c-0.69-1.63-1.03-3.4-1.03-5.32s0.34-3.7,1.03-5.32c0.71-1.63,1.71-3.04,2.99-4.25
	c1.28-1.21,2.78-2.14,4.51-2.81c1.72-0.67,3.6-1,5.62-1c2.04,0,3.92,0.33,5.62,1c1.72,0.67,3.22,1.6,4.47,2.81
	c1.28,1.21,2.28,2.62,2.99,4.25c0.71,1.6,1.07,3.38,1.07,5.32c0,1.92-0.36,3.71-1.07,5.36c-0.71,1.63-1.71,3.04-2.99,4.25
	c-1.26,1.18-2.75,2.11-4.47,2.77C220.25,105.69,218.39,106.02,216.37,106.02z M216.33,100.92c1.16,0,2.22-0.2,3.18-0.59
	c0.99-0.39,1.85-0.96,2.59-1.7c0.74-0.74,1.31-1.61,1.7-2.62c0.42-1.01,0.63-2.13,0.63-3.36c0-1.23-0.21-2.35-0.63-3.36
	c-0.39-1.01-0.96-1.88-1.7-2.62c-0.71-0.74-1.56-1.31-2.55-1.7c-0.99-0.39-2.06-0.59-3.22-0.59s-2.23,0.2-3.22,0.59
	c-0.96,0.39-1.81,0.96-2.55,1.7c-0.74,0.74-1.32,1.61-1.74,2.62c-0.39,1.01-0.59,2.13-0.59,3.36c0,1.21,0.2,2.33,0.59,3.36
	c0.42,1.01,0.99,1.88,1.7,2.62c0.74,0.74,1.6,1.31,2.59,1.7C214.1,100.73,215.17,100.92,216.33,100.92z M247.46,105.58L236.3,79.71
	h6.47l9.76,22.91h-3.81l9.9-22.91h5.95l-11.2,25.87H247.46z M272.27,105.58V79.71h5.99v25.87H272.27z M295.45,90.13h12.45v4.66
	h-12.45V90.13z M295.89,100.78h14.08v4.8h-20.03V79.71h19.55v4.8h-13.6V100.78z M328.78,106.02c-2.07,0-4.05-0.27-5.95-0.81
	c-1.9-0.57-3.42-1.29-4.58-2.18l2.03-4.51c1.11,0.79,2.41,1.44,3.92,1.96c1.53,0.49,3.07,0.74,4.62,0.74c1.18,0,2.13-0.11,2.85-0.33
	c0.74-0.25,1.28-0.58,1.63-1c0.34-0.42,0.52-0.9,0.52-1.44c0-0.69-0.27-1.23-0.81-1.63c-0.54-0.42-1.26-0.75-2.14-1
	c-0.89-0.27-1.87-0.52-2.96-0.74c-1.06-0.25-2.13-0.54-3.22-0.89c-1.06-0.34-2.03-0.79-2.92-1.33c-0.89-0.54-1.61-1.26-2.18-2.14
	c-0.54-0.89-0.81-2.02-0.81-3.4c0-1.48,0.39-2.82,1.18-4.03c0.81-1.23,2.02-2.21,3.62-2.92c1.63-0.74,3.66-1.11,6.1-1.11
	c1.63,0,3.23,0.2,4.8,0.59c1.58,0.37,2.97,0.94,4.18,1.7l-1.85,4.55c-1.21-0.69-2.41-1.19-3.62-1.52c-1.21-0.34-2.39-0.52-3.55-0.52
	s-2.11,0.14-2.85,0.41c-0.74,0.27-1.27,0.63-1.59,1.07c-0.32,0.42-0.48,0.91-0.48,1.48c0,0.67,0.27,1.21,0.81,1.63
	c0.54,0.39,1.26,0.71,2.14,0.96c0.89,0.25,1.86,0.49,2.92,0.74c1.08,0.25,2.16,0.53,3.22,0.85c1.08,0.32,2.07,0.75,2.96,1.29
	c0.89,0.54,1.6,1.26,2.14,2.14c0.57,0.89,0.85,2.01,0.85,3.36c0,1.45-0.41,2.78-1.22,3.99c-0.81,1.21-2.03,2.18-3.66,2.92
	C333.27,105.66,331.24,106.02,328.78,106.02z"/>
<g>
	<path class="st1" d="M44,87.1h107.79v12.32H57.86L44,87.1z"/>
</g>
<g>
	<path class="st1" d="M456.67,87.1H348.89v12.32h93.93L456.67,87.1z"/>
</g>
<circle class="st1" cx="216.46" cy="93.26" r="3.08"/>
</svg>
