<svg xmlns="http://www.w3.org/2000/svg" xmlns:xlink="http://www.w3.org/1999/xlink" viewBox="0 0 500 500"><defs><clipPath id="freepik--clip-path--inject-1--inject-81"><path d="M98,212.5s-2.07,2.27-1.24,6.82,11.38,35.38,14.07,40.35,5.17,4.13,7.45,2.89,22.34-14.27,28.13-17.79,16.14-9.52,16.14-9.52,9.51,4.35,9.31,2.28.83-6-2.07-9.1-8.07-.83-10.34.83-18.62,8.48-25.86,11-11,3.52-11,3.52l-9.52-19.66" style="fill:#fff;stroke:#263238;stroke-linecap:round;stroke-linejoin:round"></path></clipPath><clipPath id="freepik--clip-path-2--inject-1--inject-81"><path d="M137.19,197.13c-3.8,1.39-7.36,3-7.93,1.09-.62-2.07-2.69-8.89-2.69-8.89S112.5,178,110,180s8.07,20.69,6,21.51c-.74.3-3.36,1.17-6.34,2.41,1.34,2.19,4.46,6.1,11.31,10.21,10.34,6.21,12.62,7.86,12.62,7.86Z" style="fill:#fff;stroke:#263238;stroke-linecap:round;stroke-linejoin:round"></path></clipPath><clipPath id="freepik--clip-path-3--inject-1--inject-81"><path d="M131.74,188.29s-6.2,5.59-5.17,7,5.17-3.93,5.17-3.93l2.28,1.24a10.52,10.52,0,0,0-2.9,3.1c-.62,1.45,0,2.48,1.24,3.93s1.45,3.31,3.11,3.31,2.07-2.27,2.07-2.27a18.92,18.92,0,0,0,2.69,3.72c1,.83,3.93,1,3.93,1s10.55,29,13,33.31,3.1,7.66,10.34,6.83,4.76-6.83,2.49-12.21-16.55-24-20.28-28.34-5.38-6.41-9.72-11.79S133,187.05,131.74,188.29Z" style="fill:#fff;stroke:#263238;stroke-linecap:round;stroke-linejoin:round"></path></clipPath><clipPath id="freepik--clip-path-4--inject-1--inject-81"><path d="M143.53,345.17s-5.62,13.43-5.62,20.61.31,34.34-1.25,39.65-1.56,7.81.63,8.74,7.18.63,8.43,1.56,7.49,3.13,9.05,1.88-9.36-7.81-10.61-10.31,4.68-29.34,7.8-35.59,7.49-25.29,7.49-27.47S143.53,345.17,143.53,345.17Z" style="fill:#fff;stroke:#263238;stroke-linecap:round;stroke-linejoin:round"></path></clipPath><clipPath id="freepik--clip-path-5--inject-1--inject-81"><path d="M111.69,346.42s-5,5.94-6.87,17.8-2.19,47.14-2.5,52.14-.62,5.93,2.5,7.49,10.3,5,12.17,5,2.5-1.25,0-5.62-9.36-6.25-9.36-10,15.61-47.15,17.48-54A48.35,48.35,0,0,0,127,347.67Z" style="fill:#fff;stroke:#263238;stroke-linecap:round;stroke-linejoin:round"></path></clipPath><clipPath id="freepik--clip-path-6--inject-1--inject-81"><path d="M129.26,159.54a7.11,7.11,0,0,0-2.69-4.76c-2.48-1.86-11.58-2.28-15.51,2.69s-2.28,17.17-1.66,18.41c0,0-5.17-3.1-5.59,1.66s1.87,7,4.35,7a3.56,3.56,0,0,0,3.31-1.86s5.38,6.62,12.83,7.45,11.58-7.45,12.62-12.42S130.3,164.92,129.26,159.54Z" style="fill:#fff;stroke:#263238;stroke-linecap:round;stroke-linejoin:round"></path></clipPath></defs><!--Photos--><g id="freepik--background-simple--inject-1--inject-81"><path d="M453.8,236.55c-1.59-8.37-6.94-15.45-12.14-22.2L354.38,101.13c-7-9.1-14.6-18.63-25.37-22.63-12.44-4.62-25.57-.86-38.36,4-6.06,1.72-12.74,4.66-19.91,7.59A225.29,225.29,0,0,1,233.14,99c-23.7-1.16-48-20.4-100.14-10-36.18,7.24-57.66,28-68.13,41.38A35.63,35.63,0,0,0,57,142.3c-4,9.87-4.05,20.93-2.64,31.49,3.92,29.34,18.47,56.83,19.56,86.41.72,19.36-4.42,38.48-11,56.69-4.56,12.62-9.9,26.32-5.59,39S75.09,376.69,88.51,378s26.76-3,39.13-8.33S152,357.79,165,354.22c26.55-7.3,54.9-1.74,81.23,6.31s52.2,18.62,79.58,21.53c15.24,1.62,31.95.36,43.73-9.44,18.65-15.5,17.32-44.81,30.8-65,8.61-12.89,22.55-21,34.29-31.11S456.7,251.78,453.8,236.55Z" style="fill:#F0B90B"></path><path d="M453.8,236.55c-1.59-8.37-6.94-15.45-12.14-22.2L354.38,101.13c-7-9.1-14.6-18.63-25.37-22.63-12.44-4.62-25.57-.86-38.36,4-6.06,1.72-12.74,4.66-19.91,7.59A225.29,225.29,0,0,1,233.14,99c-23.7-1.16-48-20.4-100.14-10-36.18,7.24-57.66,28-68.13,41.38A35.63,35.63,0,0,0,57,142.3c-4,9.87-4.05,20.93-2.64,31.49,3.92,29.34,18.47,56.83,19.56,86.41.72,19.36-4.42,38.48-11,56.69-4.56,12.62-9.9,26.32-5.59,39S75.09,376.69,88.51,378s26.76-3,39.13-8.33S152,357.79,165,354.22c26.55-7.3,54.9-1.74,81.23,6.31s52.2,18.62,79.58,21.53c15.24,1.62,31.95.36,43.73-9.44,18.65-15.5,17.32-44.81,30.8-65,8.61-12.89,22.55-21,34.29-31.11S456.7,251.78,453.8,236.55Z" style="fill:#fff;opacity:0.7000000000000001"></path></g><g id="freepik--Shadow--inject-1--inject-81"><ellipse cx="249.5" cy="422" rx="198.5" ry="15" style="fill:#F0B90B"></ellipse><ellipse cx="249.5" cy="422" rx="198.5" ry="15" style="fill:#fff;opacity:0.9"></ellipse></g><g id="freepik--picture-3--inject-1--inject-81"><rect x="220.91" y="117.92" width="203.86" height="168.54" style="fill:#F0B90B;opacity:0.5;mix-blend-mode:multiply"></rect><rect x="229.39" y="106.02" width="201.23" height="171.4" style="fill:#fff;stroke:#263238;stroke-linecap:round;stroke-linejoin:round"></rect><rect x="240.63" y="115.39" width="178.75" height="152.67" style="fill:#fff;stroke:#263238;stroke-linecap:round;stroke-linejoin:round"></rect><path d="M419.38,157.38a44.56,44.56,0,0,1-6.79-.16c-28.06-2.8-38.68-50.29-71.59-32.59-24.45,13.13-13.53,38.17-14,59.37-.4,18.16-10.66,37.56-31.35,33.42-28.21-5.64-16.62-39.1-38.06-49.82a38.6,38.6,0,0,0-17-4V268.06H419.38Z" style="fill:#F0B90B;stroke:#263238;stroke-linecap:round;stroke-linejoin:round"></path><circle cx="277.95" cy="142.55" r="14.99" style="fill:#F0B90B;stroke:#263238;stroke-linecap:round;stroke-linejoin:round"></circle></g><g id="freepik--picture-2--inject-1--inject-81"><rect x="183.99" y="268.8" width="160.52" height="136.44" style="fill:#F0B90B;opacity:0.6000000000000001;mix-blend-mode:multiply"></rect><rect x="190.05" y="259.63" width="161.64" height="137.68" style="fill:#fff;stroke:#263238;stroke-linecap:round;stroke-linejoin:round"></rect><rect x="199.08" y="267.15" width="143.59" height="122.64" style="fill:#F0B90B;stroke:#263238;stroke-linecap:round;stroke-linejoin:round"></rect><circle cx="226.29" cy="310.42" r="12.04" transform="translate(-116.48 483.86) rotate(-80.75)" style="fill:#fff;stroke:#263238;stroke-linecap:round;stroke-linejoin:round"></circle><path d="M342.67,270.08c-.68.2-1.35.4-2,.62-32.53,10.38-16.61,51.9-37.37,74s-46.36,9.69-73.35,4.85a68.92,68.92,0,0,0-30.83,1.23v39H342.67Z" style="fill:#fff;stroke:#263238;stroke-linecap:round;stroke-linejoin:round"></path></g><g id="freepik--picture-1--inject-1--inject-81"><rect x="71.62" y="81" width="163.73" height="171.75" style="fill:#F0B90B;opacity:0.6000000000000001;mix-blend-mode:multiply"></rect><rect x="78.59" y="74.18" width="201.23" height="171.4" style="fill:#fff;stroke:#263238;stroke-linecap:round;stroke-linejoin:round"></rect><rect x="89.83" y="83.55" width="178.75" height="152.67" style="fill:#fff;stroke:#263238;stroke-linecap:round;stroke-linejoin:round"></rect><path d="M268.58,114.57l-76.8,64.51-23.64-28.66a10.61,10.61,0,0,0-15.52-.92L89.83,209.42v26.79H268.58Z" style="fill:#F0B90B;stroke:#263238;stroke-linecap:round;stroke-linejoin:round"></path><circle cx="127.15" cy="110.71" r="14.99" transform="translate(-9.95 208.82) rotate(-76.63)" style="fill:#F0B90B;stroke:#263238;stroke-linecap:round;stroke-linejoin:round"></circle></g><g id="freepik--Character--inject-1--inject-81"><path d="M126.57,189.33s2.07,6.82,2.69,8.89,4.76,0,8.9-1.44,13.65-6.21,15.72-4.35,18.2,43,17.38,46.13-1.86,5-7.24,3.73-7.45-6.83-7.45-6.83L153.88,245A85,85,0,0,1,162,263.6c2.69,9.72,8.27,41.17,8.69,50.06s3.1,28.76,3.1,28.76-2.07,1.86-12.62,3.93-15.93,2.07-15.93,2.07l.21,3.31a57,57,0,0,1-21.72.41,86.81,86.81,0,0,1-19.87-5.59s8.28-33.92,8.07-41.37-2.07-13.65-1.65-20.69,5-17.79,5-17.79,3.31-6.21-1.45-18.21-12.61-30-14.68-35.37,14.89-10.76,17-11.59-8.48-19.44-6-21.51S126.57,189.33,126.57,189.33Z" style="fill:#F0B90B;stroke:#263238;stroke-linecap:round;stroke-linejoin:round"></path><path d="M98,212.5s-2.07,2.27-1.24,6.82,11.38,35.38,14.07,40.35,5.17,4.13,7.45,2.89,22.34-14.27,28.13-17.79,16.14-9.52,16.14-9.52,9.51,4.35,9.31,2.28.83-6-2.07-9.1-8.07-.83-10.34.83-18.62,8.48-25.86,11-11,3.52-11,3.52l-9.52-19.66" style="fill:#fff"></path><g style="clip-path:url(#freepik--clip-path--inject-1--inject-81)"><path d="M117.2,256.83c-3.35-.84-6.71-7.55-6.71-7.55s2.94-2.93,6.29-6.71a13.55,13.55,0,0,0,2.81-5.14l-6.47-13.35h0l-11.43.88s-1,1.08-2.45,2.78c3.5,10.91,9.65,28.3,11.61,31.93,2.69,5,5.17,4.13,7.45,2.89s22.34-14.27,28.13-17.79,16.14-9.52,16.14-9.52a56,56,0,0,0,6.36,2.44c-1.14-3.39-2.25-6.44-2.25-6.44H155.63c-.77.36-1.61.74-2.51,1.14l-.7,5.57" style="fill:#F0B90B;opacity:0.5;mix-blend-mode:multiply"></path><path d="M143.53,345.17s-5.62,13.43-5.62,20.61.31,34.34-1.25,39.65-1.56,7.81.63,8.74c0-4.09,1.71-16.87,5.07-34.49S144.45,355,144.45,355s6.29-1.26,9.23-2.1a45.53,45.53,0,0,0,4.47-1.68,53.63,53.63,0,0,0,1.3-6.93C159.45,342.05,143.53,345.17,143.53,345.17Z" style="fill:#F0B90B;opacity:0.5;mix-blend-mode:multiply"></path></g><path d="M98,212.5s-2.07,2.27-1.24,6.82,11.38,35.38,14.07,40.35,5.17,4.13,7.45,2.89,22.34-14.27,28.13-17.79,16.14-9.52,16.14-9.52,9.51,4.35,9.31,2.28.83-6-2.07-9.1-8.07-.83-10.34.83-18.62,8.48-25.86,11-11,3.52-11,3.52l-9.52-19.66" style="fill:none;stroke:#263238;stroke-linecap:round;stroke-linejoin:round"></path><path d="M169.81,228.43c-2.9-3.11-8.07-.83-10.34.83q-.28.19-.81.48a12.21,12.21,0,0,1,2.25,3.86c.26.77.46,1.53.63,2.25l1-.6s9.51,4.35,9.31,2.28S172.71,231.53,169.81,228.43Z" style="fill:#fff;stroke:#263238;stroke-linecap:round;stroke-linejoin:round"></path><path d="M137.19,197.13c-3.8,1.39-7.36,3-7.93,1.09-.62-2.07-2.69-8.89-2.69-8.89S112.5,178,110,180s8.07,20.69,6,21.51c-.74.3-3.36,1.17-6.34,2.41,1.34,2.19,4.46,6.1,11.31,10.21,10.34,6.21,12.62,7.86,12.62,7.86Z" style="fill:#fff"></path><g style="clip-path:url(#freepik--clip-path-2--inject-1--inject-81)"><path d="M126.57,189.33s-12.81-10.36-16.13-9.5l-.55.35c-1.2,1.72,2.38,9.49,4.66,15.17a15.23,15.23,0,0,0,5.17.26,34.53,34.53,0,0,0,7.72-3.42C127,190.59,126.57,189.33,126.57,189.33Z" style="fill:#F0B90B;opacity:0.5;mix-blend-mode:multiply"></path></g><path d="M137.19,197.13c-3.8,1.39-7.36,3-7.93,1.09-.62-2.07-2.69-8.89-2.69-8.89S112.5,178,110,180s8.07,20.69,6,21.51c-.74.3-3.36,1.17-6.34,2.41,1.34,2.19,4.46,6.1,11.31,10.21,10.34,6.21,12.62,7.86,12.62,7.86Z" style="fill:none;stroke:#263238;stroke-linecap:round;stroke-linejoin:round"></path><path d="M128.37,161.74s4.53-8.15.18-14.82c-6.39-9.77-20.3-9.36-31.22-1.56C86.61,153,85.9,167.92,85.65,176.78s4,16.93-.76,23.64S73,213.85,75.29,226.47s8.34,16.93,25.78,16.93,25.34-17.18,21.54-28.73-7.8-21.53-7.8-25.29-11-25.22-1.35-28.17S128.37,161.74,128.37,161.74Z" style="fill:#263238;stroke:#263238;stroke-linecap:round;stroke-linejoin:round"></path><path d="M122,153.72a11,11,0,0,0-12.86,1.2c-6.59,5.38-9.28,13.76-9.28,22.74s9,27.23,11.67,38.6.3,26-16.46,26.63" style="fill:none;stroke:#fff;stroke-linecap:round;stroke-linejoin:round;stroke-width:0.5px"></path><path d="M124.4,154s-2.4-9.57-15.86-7.78S89.69,169,91.48,181.85s17.06,35.9,18.25,43.68-1.49,11.5-1.49,11.5" style="fill:none;stroke:#fff;stroke-linecap:round;stroke-linejoin:round;stroke-width:0.5px"></path><path d="M94.47,192.62s2.7,6.58.9,21.24-12,18.56-14.06,13.77.9-8.68,3.89-9" style="fill:none;stroke:#fff;stroke-linecap:round;stroke-linejoin:round;stroke-width:0.5px"></path><path d="M132.91,192.61s-3.53-.17-4,1,4.81,1.76,4.81,1.76Z" style="fill:#fff;stroke:#263238;stroke-linecap:round;stroke-linejoin:round"></path><path d="M131.74,188.29s-6.2,5.59-5.17,7,5.17-3.93,5.17-3.93l2.28,1.24a10.52,10.52,0,0,0-2.9,3.1c-.62,1.45,0,2.48,1.24,3.93s1.45,3.31,3.11,3.31,2.07-2.27,2.07-2.27a18.92,18.92,0,0,0,2.69,3.72c1,.83,3.93,1,3.93,1s10.55,29,13,33.31,3.1,7.66,10.34,6.83,4.76-6.83,2.49-12.21-16.55-24-20.28-28.34-5.38-6.41-9.72-11.79S133,187.05,131.74,188.29Z" style="fill:#fff"></path><g style="clip-path:url(#freepik--clip-path-3--inject-1--inject-81)"><path d="M163,239.33c-4-5-16-31.33-18.84-33.87,0,0,10.55,29,13,33.31s3.1,7.66,10.34,6.83a6.74,6.74,0,0,0,3.42-1.19A16,16,0,0,1,163,239.33Z" style="fill:#F0B90B;opacity:0.5;mix-blend-mode:multiply"></path></g><path d="M131.74,188.29s-6.2,5.59-5.17,7,5.17-3.93,5.17-3.93l2.28,1.24a10.52,10.52,0,0,0-2.9,3.1c-.62,1.45,0,2.48,1.24,3.93s1.45,3.31,3.11,3.31,2.07-2.27,2.07-2.27a18.92,18.92,0,0,0,2.69,3.72c1,.83,3.93,1,3.93,1s10.55,29,13,33.31,3.1,7.66,10.34,6.83,4.76-6.83,2.49-12.21-16.55-24-20.28-28.34-5.38-6.41-9.72-11.79S133,187.05,131.74,188.29Z" style="fill:none;stroke:#263238;stroke-linecap:round;stroke-linejoin:round"></path><path d="M137.67,199c-2.34,0-2.2,4-2.2,4,1.65,0,2.07-2.27,2.07-2.27a18.92,18.92,0,0,0,2.69,3.72c1,.83,3.93,1,3.93,1C141.31,202.93,140,199,137.67,199Z" style="fill:#F0B90B;mix-blend-mode:multiply"></path><path d="M132.11,199.18s-.48-2.24,0-2.88a35.66,35.66,0,0,1,2.57-2.57" style="fill:none;stroke:#263238;stroke-linecap:round;stroke-linejoin:round;stroke-width:0.5px"></path><path d="M133.39,201.11s-.64-3.21,0-3.69,3.37-2.09,3.37-2.09" style="fill:none;stroke:#263238;stroke-linecap:round;stroke-linejoin:round;stroke-width:0.5px"></path><path d="M143.53,345.17s-5.62,13.43-5.62,20.61.31,34.34-1.25,39.65-1.56,7.81.63,8.74,7.18.63,8.43,1.56,7.49,3.13,9.05,1.88-9.36-7.81-10.61-10.31,4.68-29.34,7.8-35.59,7.49-25.29,7.49-27.47S143.53,345.17,143.53,345.17Z" style="fill:#fff"></path><g style="clip-path:url(#freepik--clip-path-4--inject-1--inject-81)"><path d="M143.53,345.17s-5.62,13.43-5.62,20.61.31,34.34-1.25,39.65-1.56,7.81.63,8.74c0-4.09,1.71-16.87,5.07-34.49S144.45,355,144.45,355s6.29-1.26,9.23-2.1a45.53,45.53,0,0,0,4.47-1.68,53.63,53.63,0,0,0,1.3-6.93C159.45,342.05,143.53,345.17,143.53,345.17Z" style="fill:#F0B90B;opacity:0.5;mix-blend-mode:multiply"></path></g><path d="M143.53,345.17s-5.62,13.43-5.62,20.61.31,34.34-1.25,39.65-1.56,7.81.63,8.74,7.18.63,8.43,1.56,7.49,3.13,9.05,1.88-9.36-7.81-10.61-10.31,4.68-29.34,7.8-35.59,7.49-25.29,7.49-27.47S143.53,345.17,143.53,345.17Z" style="fill:none;stroke:#263238;stroke-linecap:round;stroke-linejoin:round"></path><path d="M144.16,407.3l-2.5,3.13-5.46-3.33c-1.07,4.17-.85,6.24,1.09,7.07,2.18.94,7.18.63,8.43,1.56s7.49,3.13,9.05,1.88S145.41,409.8,144.16,407.3Z" style="fill:#F0B90B;stroke:#263238;stroke-linecap:round;stroke-linejoin:round"></path><path d="M111.69,346.42s-5,5.94-6.87,17.8-2.19,47.14-2.5,52.14-.62,5.93,2.5,7.49,10.3,5,12.17,5,2.5-1.25,0-5.62-9.36-6.25-9.36-10,15.61-47.15,17.48-54A48.35,48.35,0,0,0,127,347.67Z" style="fill:#fff"></path><g style="clip-path:url(#freepik--clip-path-5--inject-1--inject-81)"><path d="M104.82,364.22c-1.87,11.86-2.19,47.14-2.5,52.14s-.6,5.89,2.34,7.41c.08-5.31.35-15.84,1.22-28.57,1.26-18.45,5.45-41.51,5.45-41.51a48,48,0,0,0,9.64,2.09,34.41,34.41,0,0,0,4.89.37,44.83,44.83,0,0,0,1.13-8.48l-15.3-1.25S106.69,352.35,104.82,364.22Z" style="fill:#F0B90B;opacity:0.5;mix-blend-mode:multiply"></path></g><path d="M111.69,346.42s-5,5.94-6.87,17.8-2.19,47.14-2.5,52.14-.62,5.93,2.5,7.49,10.3,5,12.17,5,2.5-1.25,0-5.62-9.36-6.25-9.36-10,15.61-47.15,17.48-54A48.35,48.35,0,0,0,127,347.67Z" style="fill:none;stroke:#263238;stroke-linecap:round;stroke-linejoin:round"></path><path d="M117,428.85c1.88,0,2.5-1.25,0-5.62-1.77-3.1-5.73-5-7.89-7.1l-2.72,2.73-4.07-2.27c-.31,4.78-.56,5.73,2.51,7.26S115.12,428.85,117,428.85Z" style="fill:#F0B90B;stroke:#263238;stroke-linecap:round;stroke-linejoin:round"></path><path d="M129.26,159.54a7.11,7.11,0,0,0-2.69-4.76c-2.48-1.86-11.58-2.28-15.51,2.69s-2.28,17.17-1.66,18.41c0,0-5.17-3.1-5.59,1.66s1.87,7,4.35,7a3.56,3.56,0,0,0,3.31-1.86s5.38,6.62,12.83,7.45,11.58-7.45,12.62-12.42S130.3,164.92,129.26,159.54Z" style="fill:#fff"></path><g style="clip-path:url(#freepik--clip-path-6--inject-1--inject-81)"><path d="M119.72,184.71c-5-3.36-8.39-10.49-9.65-15.52-.93-3.71.2-9,.85-11.54-3.75,5.08-2.13,17-1.52,18.23,0,0-5.17-3.1-5.59,1.66s1.87,7,4.35,7a3.56,3.56,0,0,0,3.31-1.86s5.38,6.62,12.83,7.45a8.86,8.86,0,0,0,6.41-1.82A20.32,20.32,0,0,1,119.72,184.71Z" style="fill:#F0B90B;opacity:0.5;mix-blend-mode:multiply"></path></g><path d="M129.26,159.54a7.11,7.11,0,0,0-2.69-4.76c-2.48-1.86-11.58-2.28-15.51,2.69s-2.28,17.17-1.66,18.41c0,0-5.17-3.1-5.59,1.66s1.87,7,4.35,7a3.56,3.56,0,0,0,3.31-1.86s5.38,6.62,12.83,7.45,11.58-7.45,12.62-12.42S130.3,164.92,129.26,159.54Z" style="fill:none;stroke:#263238;stroke-linecap:round;stroke-linejoin:round"></path><path d="M126.25,162.67a9.88,9.88,0,0,0,.27,4.75c.82,2,3.93,4.2,3.53,5s-1.76,1.09-1.76,1.09" style="fill:none;stroke:#263238;stroke-linecap:round;stroke-linejoin:round"></path><path d="M128.15,179.61s-1.9.82-4.74-.94" style="fill:none;stroke:#263238;stroke-linecap:round;stroke-linejoin:round"></path><path d="M120.62,167.43c.14.85-.08,1.59-.48,1.66s-.85-.57-1-1.42.08-1.59.48-1.65S120.48,166.58,120.62,167.43Z" style="fill:#263238"></path><path d="M129.19,164.08c.27.82.17,1.58-.22,1.71s-.93-.42-1.2-1.24-.17-1.58.22-1.71S128.92,163.26,129.19,164.08Z" style="fill:#263238"></path><path d="M116.23,165.79s-.41-3,1.89-3.93,3.53-.27,3.53-.27" style="fill:none;stroke:#263238;stroke-linecap:round;stroke-linejoin:round"></path><path d="M126,161.45s.25-2.41,1.76-2.16" style="fill:none;stroke:#263238;stroke-linecap:round;stroke-linejoin:round"></path><path d="M145.19,348.42s5.38,0,15.93-2.07,12.62-3.93,12.62-3.93-2.69-19.86-3.1-28.76S164.76,274,162,263.93c-3.25,2.28-8.26,4.79-16,6.94a41.7,41.7,0,0,1-31.14-3.42c-1,2.55-4.31,11.12-4.66,17-.42,7,1.45,13.24,1.65,20.69s-8.07,41.37-8.07,41.37a86.81,86.81,0,0,0,19.87,5.59,57,57,0,0,0,21.72-.41Z" style="fill:#263238;stroke:#263238;stroke-linecap:round;stroke-linejoin:round"></path><polyline points="145.19 348.42 144.16 288.04 149.78 278.36" style="fill:none;stroke:#fff;stroke-linecap:round;stroke-linejoin:round"></polyline><path d="M126.92,273.81a13.31,13.31,0,0,1-7.44,9.57" style="fill:none;stroke:#fff;stroke-linecap:round;stroke-linejoin:round;stroke-width:0.5px"></path><path d="M117,344.61c-.43,2.89-.7,4.66-.7,4.66" style="fill:none;stroke:#fff;stroke-linecap:round;stroke-linejoin:round;stroke-width:0.5px"></path><path d="M120.54,272.39a53.93,53.93,0,0,0-1.77,19.14c1.06,9.92,1.77,27.28.35,37.9-.55,4.14-1.1,8.07-1.57,11.32" style="fill:none;stroke:#fff;stroke-linecap:round;stroke-linejoin:round;stroke-width:0.5px"></path><path d="M106.37,341.12s11,8.86,36.49,6" style="fill:none;stroke:#fff;stroke-linecap:round;stroke-linejoin:round;stroke-width:0.5px"></path><path d="M148.17,344s11,.71,23.74-6.73" style="fill:none;stroke:#fff;stroke-linecap:round;stroke-linejoin:round;stroke-width:0.5px"></path></g></svg>