<?xml version="1.0" encoding="utf-8"?>
<!-- Generator: Adobe Illustrator 28.0.0, SVG Export Plug-In . SVG Version: 6.00 Build 0)  -->
<svg version="1.1" id="Capa_1" xmlns="http://www.w3.org/2000/svg" xmlns:xlink="http://www.w3.org/1999/xlink" x="0px" y="0px"
	 viewBox="0 0 200 202" style="enable-background:new 0 0 200 202;" xml:space="preserve">
<style type="text/css">
	.st0{fill:#000000;}
</style>
<path class="st0" d="M100,1C80.2,1,60.9,6.9,44.4,17.9C28,28.8,15.2,44.5,7.6,62.7C0,81-1.9,101.1,1.9,120.5
	c3.9,19.4,13.4,37.2,27.4,51.2c14,14,31.8,23.5,51.2,27.4c19.4,3.9,39.5,1.9,57.8-5.7c18.3-7.6,33.9-20.4,44.9-36.8
	c11-16.4,16.9-35.8,16.9-55.6c0-26.5-10.6-51.9-29.3-70.7C151.9,11.6,126.5,1,100,1z M48.2,167.8c5.6-8.7,13.2-15.9,22.3-20.8
	c9.1-5,19.2-7.6,29.6-7.6s20.5,2.6,29.6,7.6c9.1,5,16.7,12.1,22.3,20.8c-14.8,11.5-33.1,17.8-51.8,17.8S63,179.4,48.2,167.8z
	 M69.2,93.3c0-6.1,1.8-12,5.2-17.1c3.4-5.1,8.2-9,13.8-11.3c5.6-2.3,11.8-2.9,17.8-1.8c6,1.2,11.5,4.1,15.8,8.4
	c4.3,4.3,7.2,9.8,8.4,15.8c1.2,6,0.6,12.2-1.8,17.8c-2.3,5.6-6.3,10.4-11.3,13.8c-5.1,3.4-11,5.2-17.1,5.2c-8.2,0-16-3.2-21.8-9
	C72.5,109.3,69.2,101.5,69.2,93.3z M163.2,157.2c-8.6-12.4-20.6-22.1-34.7-27.6c7.5-5.9,13-14.1,15.7-23.3c2.7-9.2,2.5-19-0.7-28.1
	c-3.1-9.1-9-16.9-16.8-22.5c-7.8-5.6-17.2-8.6-26.8-8.6s-18.9,3-26.8,8.6c-7.8,5.6-13.7,13.4-16.8,22.5c-3.1,9.1-3.4,18.9-0.7,28.1
	c2.7,9.2,8.2,17.3,15.7,23.3c-14,5.6-26.1,15.2-34.7,27.6c-10.8-12.2-17.9-27.3-20.4-43.4c-2.5-16.1-0.2-32.6,6.4-47.5
	C29.5,51.4,40.3,38.8,54,29.9c13.7-8.9,29.7-13.6,46-13.6s32.3,4.7,46,13.6c13.7,8.9,24.5,21.5,31.2,36.4
	c6.7,14.9,8.9,31.4,6.4,47.5C181.2,129.9,174.1,145,163.2,157.2z"/>
</svg>
